<svg width="21" height="20" viewBox="0 0 21 20" fill="none" xmlns="http://www.w3.org/2000/svg">
<path d="M16.64 13.4448V8.25029C16.64 5.24006 13.8921 2.79314 10.5117 2.79314C7.13127 2.79314 4.38343 5.24006 4.38343 8.25029V13.4448C4.39392 13.9952 3.23868 14.8281 3 15.3179L3 17.0481L18.0234 17.0481V15.3179C17.7847 14.8281 16.6295 13.9952 16.64 13.4448ZM8.80016 5.43563C8.23041 5.71034 7.75437 6.11675 7.42215 6.61208C7.08993 7.10741 6.91382 7.67334 6.91236 8.25029C6.91236 8.46042 6.72685 8.62562 6.49087 8.62562C6.43536 8.62612 6.3803 8.61676 6.3289 8.59808C6.27751 8.5794 6.23082 8.55177 6.19156 8.51682C6.15231 8.48186 6.12128 8.44028 6.10031 8.39452C6.07933 8.34875 6.06881 8.29972 6.06938 8.25029C6.06938 6.8015 6.96282 5.46538 8.39574 4.77485C8.8819 4.54763 9.28065 5.18752 8.80088 5.43563H8.80016ZM10.5117 19.9982C12.5185 20.0558 13.0926 18.7506 13.2966 17.4689H7.57835C7.80477 18.8194 8.69807 19.9981 10.5117 19.9982Z" fill="url(#paint0_linear_303_1938)"/>
<path d="M11.7776 1.26586C11.7776 1.96497 11.2108 2.53172 10.5117 2.53172C9.81258 2.53172 9.24584 1.96497 9.24584 1.26586C9.24584 0.566745 9.81258 0 10.5117 0C11.2108 0 11.7776 0.566745 11.7776 1.26586Z" fill="url(#paint1_linear_303_1938)"/>
<defs>
<linearGradient id="paint0_linear_303_1938" x1="10.5117" y1="0" x2="10.5117" y2="20" gradientUnits="userSpaceOnUse">
<stop stop-color="#F8E889"/>
<stop offset="1" stop-color="#E4B764"/>
</linearGradient>
<linearGradient id="paint1_linear_303_1938" x1="10.5117" y1="0" x2="10.5117" y2="20" gradientUnits="userSpaceOnUse">
<stop stop-color="#F8E889"/>
<stop offset="1" stop-color="#E4B764"/>
</linearGradient>
</defs>
</svg>
