<svg width="21" height="20" viewBox="0 0 21 20" fill="none" xmlns="http://www.w3.org/2000/svg">
<path fill-rule="evenodd" clip-rule="evenodd" d="M11.7776 1.26586C11.7776 1.96497 11.2108 2.53172 10.5117 2.53172C9.8126 2.53172 9.24586 1.96497 9.24586 1.26586C9.24586 0.566745 9.8126 0 10.5117 0C11.2108 0 11.7776 0.566745 11.7776 1.26586ZM10.5117 1.97616C10.904 1.97616 11.222 1.65815 11.222 1.26586C11.222 0.87357 10.904 0.555556 10.5117 0.555556C10.1194 0.555556 9.80141 0.87357 9.80141 1.26586C9.80141 1.65815 10.1194 1.97616 10.5117 1.97616Z" fill="url(#paint0_linear_303_1838)"/>
<path fill-rule="evenodd" clip-rule="evenodd" d="M10.5117 2.53172C10.2256 2.53172 9.96165 2.43679 9.74965 2.27672C9.44364 2.04566 9.24586 1.67886 9.24586 1.26586C9.24586 0.566745 9.8126 0 10.5117 0C11.2108 0 11.7776 0.566745 11.7776 1.26586C11.7776 1.67886 11.5798 2.04566 11.2738 2.27672C11.0618 2.43679 10.7978 2.53172 10.5117 2.53172ZM13.2738 17.6036C13.2819 17.5587 13.2895 17.5138 13.2966 17.4689H7.57836C7.58593 17.514 7.59424 17.5589 7.6033 17.6036C7.6323 17.7466 7.66902 17.8873 7.71376 18.0244C8.07359 19.127 8.95256 19.9981 10.5117 19.9982C12.2271 20.0474 12.8957 19.1009 13.1811 18.0244C13.2179 17.8857 13.2483 17.7448 13.2738 17.6036ZM8.30411 18.0244H12.6034C12.5015 18.356 12.36 18.6441 12.1623 18.8697C11.8695 19.204 11.3946 19.4677 10.5277 19.4428L10.5197 19.4426H10.5117C9.7347 19.4426 9.20115 19.1944 8.83644 18.841C8.60796 18.6196 8.43026 18.3415 8.30411 18.0244ZM11.222 1.26586C11.222 1.65815 10.904 1.97616 10.5117 1.97616C10.1194 1.97616 9.80141 1.65815 9.80141 1.26586C9.80141 0.87357 10.1194 0.555556 10.5117 0.555556C10.904 0.555556 11.222 0.87357 11.222 1.26586Z" fill="url(#paint1_linear_303_1838)"/>
<path fill-rule="evenodd" clip-rule="evenodd" d="M18.0234 15.3179C17.9289 15.1239 17.6904 14.8759 17.4376 14.6131C17.0523 14.2125 16.6337 13.7771 16.64 13.4448V8.25029C16.64 7.29816 16.3651 6.40238 15.8822 5.62257L17.5592 3.94557C17.8601 3.64467 17.8601 3.15681 17.5592 2.85591C17.2583 2.55501 16.7704 2.55501 16.4695 2.85591L14.8904 4.43507C14.8489 4.39736 14.8069 4.36019 14.7643 4.32356C13.8652 3.55121 12.7022 3.02089 11.4088 2.85139C11.116 2.81302 10.8164 2.79314 10.5117 2.79314C10.207 2.79314 9.90748 2.81302 9.61461 2.85139C6.65827 3.23881 4.38345 5.51138 4.38345 8.25029V13.4448C4.38978 13.7771 3.97111 14.2125 3.58583 14.6131C3.33302 14.8759 3.09458 15.1239 3.00002 15.3179V16.3254L1.68924 17.6362C1.38834 17.9371 1.38834 18.425 1.68924 18.7259C1.99014 19.0268 2.478 19.0268 2.7789 18.7259L4.4567 17.0481L18.0234 17.0481V15.3179ZM17.4679 16.4925V15.4754C17.4304 15.4255 17.3744 15.358 17.2944 15.2701C17.2134 15.1812 17.1335 15.0983 17.0468 15.0083C16.9807 14.9396 16.9107 14.8669 16.8331 14.7842C16.6712 14.6116 16.4949 14.414 16.3583 14.2125C16.2333 14.028 16.0806 13.7544 16.0844 13.4406V8.25029C16.0844 7.45842 15.8659 6.7013 15.4756 6.02912L5.01226 16.4925L17.4679 16.4925ZM8.80089 5.43563C9.28066 5.18752 8.88192 4.54763 8.39575 4.77485C6.96284 5.46538 6.0694 6.8015 6.0694 8.25029C6.06883 8.29972 6.07934 8.34875 6.10032 8.39452C6.1213 8.44028 6.15233 8.48186 6.19158 8.51682C6.23083 8.55177 6.27752 8.5794 6.32892 8.59808C6.38031 8.61676 6.43538 8.62612 6.49089 8.62562C6.72686 8.62562 6.91237 8.46042 6.91237 8.25029C6.91383 7.67334 7.08994 7.10741 7.42216 6.61208C7.75439 6.11675 8.23043 5.71034 8.80018 5.43563H8.80089Z" fill="url(#paint2_linear_303_1838)"/>
<defs>
<linearGradient id="paint0_linear_303_1838" x1="9.74349" y1="0" x2="9.74349" y2="20" gradientUnits="userSpaceOnUse">
<stop stop-color="#5C5C5C"/>
<stop offset="1"/>
</linearGradient>
<linearGradient id="paint1_linear_303_1838" x1="9.74349" y1="0" x2="9.74349" y2="20" gradientUnits="userSpaceOnUse">
<stop stop-color="#5C5C5C"/>
<stop offset="1"/>
</linearGradient>
<linearGradient id="paint2_linear_303_1838" x1="9.74349" y1="0" x2="9.74349" y2="20" gradientUnits="userSpaceOnUse">
<stop stop-color="#5C5C5C"/>
<stop offset="1"/>
</linearGradient>
</defs>
</svg>
