<svg
                class="px-0"
                width="30"
                height="31"
                viewBox="0 0 30 31"
                fill="none"
                xmlns="http://www.w3.org/2000/svg"
              >
                <g clip-path="url(#clip0_18867_599)">
                  <path
                    d="M15 29.5C22.732 29.5 29 23.232 29 15.5C29 7.76801 22.732 1.5 15 1.5C7.26802 1.5 1 7.76801 1 15.5C1 23.232 7.26802 29.5 15 29.5Z"
                    fill="#FF1D1D"
                  />
                  <path
                    d="M15 8.8042L16.511 13.4542H21.4003L17.4447 16.3281L18.9556 20.9781L15 18.1043L11.0445 20.9781L12.5554 16.3281L8.59985 13.4542H13.4891L15 8.8042Z"
                    fill="#F8E889"
                  />
                  <path
                    opacity="0.25"
                    d="M23.8799 6.34092C25.9228 9.89006 21.7471 13.8787 16.3863 16.9645C11.0254 20.0504 4.56429 21.5224 3.39668 18.2779C2.00997 14.4248 3.79246 7.73122 9.15337 4.64537C14.5142 1.55952 21.8369 2.79181 23.8799 6.34092Z"
                    fill="white"
                  />
                </g>
                <defs>
                  <clipPath id="clip0_18867_599">
                    <rect
                      width="28"
                      height="28"
                      fill="white"
                      transform="translate(1 1.5)"
                    />
                  </clipPath>
                </defs>
              </svg>