<svg
                    width="30"
                    height="28"
                    viewBox="0 0 27 23"
                    fill="none"
                    xmlns="http://www.w3.org/2000/svg"
                  >
                    <path
                      d="M26.7333 21.644C26.7333 21.9153 26.6253 22.1754 26.4329 22.3672C26.2406 22.559 25.9797 22.6667 25.7077 22.6667H1.09229C0.820275 22.6667 0.559399 22.559 0.367054 22.3672C0.174709 22.1754 0.0666504 21.9153 0.0666504 21.644C0.0666504 21.3728 0.174709 21.1126 0.367054 20.9208C0.559399 20.729 0.820275 20.6213 1.09229 20.6213H25.7077C25.9797 20.6213 26.2406 20.729 26.4329 20.9208C26.6253 21.1126 26.7333 21.3728 26.7333 21.644ZM26.7333 2.2122V16.5304C26.7333 17.0729 26.5172 17.5931 26.1325 17.9767C25.7478 18.3603 25.2261 18.5758 24.682 18.5758H2.11793C1.5739 18.5758 1.05215 18.3603 0.667457 17.9767C0.282767 17.5931 0.0666504 17.0729 0.0666504 16.5304V2.2122C0.0666504 1.66971 0.282767 1.14944 0.667457 0.765848C1.05215 0.382251 1.5739 0.166748 2.11793 0.166748H24.682C25.2261 0.166748 25.7478 0.382251 26.1325 0.765848C26.5172 1.14944 26.7333 1.66971 26.7333 2.2122ZM18.0154 9.37129C18.0153 9.20696 17.9756 9.04507 17.8995 8.89931C17.8234 8.75355 17.7132 8.62822 17.5782 8.53393L12.45 4.95439C12.2963 4.84705 12.1161 4.78379 11.9288 4.77151C11.7416 4.75923 11.5546 4.7984 11.3882 4.88475C11.2217 4.9711 11.0822 5.10132 10.9848 5.26124C10.8875 5.42116 10.8359 5.60466 10.8359 5.79175V9.37129V12.9508C10.8359 13.1379 10.8875 13.3214 10.9848 13.4813C11.0822 13.6413 11.2217 13.7715 11.3882 13.8578C11.5546 13.9442 11.7416 13.9834 11.9288 13.9711C12.1161 13.9588 12.2963 13.8955 12.45 13.7882L17.5782 10.2087C17.7132 10.1144 17.8234 9.98904 17.8995 9.84328C17.9756 9.69752 18.0153 9.53562 18.0154 9.37129Z"
                      fill="url(#paint0_linear_18867_45)"
                    />
                    <defs>
                      <linearGradient
                        id="paint0_linear_18867_45"
                        x1="13.4"
                        y1="0.166748"
                        x2="13.4"
                        y2="22.6667"
                        gradientUnits="userSpaceOnUse"
                      >
                        <stop stop-color="#F8E889" />
                        <stop offset="1" stop-color="#E4B764" />
                      </linearGradient>
                    </defs>
                  </svg>