 <svg
                  width="22"
                  height="23"
                  viewBox="0 0 22 15"
                  fill="none"
                  xmlns="http://www.w3.org/2000/svg"
                >
                  <path
                    d="M0.701557 1.7384L9.86822 6.66274C10.1762 6.82774 10.5747 6.90596 10.9756 6.90596C11.3764 6.90596 11.7749 6.82774 12.0829 6.66274L21.2496 1.7384C21.8472 1.41696 22.4119 0.166626 21.3156 0.166626H0.63678C-0.459553 0.166626 0.105113 1.41696 0.701557 1.7384ZM21.527 4.43096L12.0829 9.35285C11.6673 9.5704 11.3764 9.59607 10.9756 9.59607C10.5747 9.59607 10.2838 9.5704 9.86822 9.35285C9.45267 9.13529 1.15011 4.78296 0.47178 4.42974C-0.00488688 4.1804 1.97519e-06 4.47251 1.97519e-06 4.6974V13.6111C1.97519e-06 14.1244 0.69178 14.8333 1.22222 14.8333H20.7778C21.3082 14.8333 22 14.1244 22 13.6111V4.69863C22 4.47374 22.0049 4.18163 21.527 4.43096Z"
                    fill="url(#paint0_linear_18905_1654)"
                  />
                  <defs>
                    <linearGradient
                      id="paint0_linear_18905_1654"
                      x1="11"
                      y1="0.166626"
                      x2="11"
                      y2="14.8333"
                      gradientUnits="userSpaceOnUse"
                    >
                      <stop stop-color="#F8E889" />
                      <stop offset="1" stop-color="#E4B764" />
                    </linearGradient>
                  </defs>
                </svg>
