<svg
                  width="22"
                  height="23"
                  viewBox="0 0 22 23"
                  fill="none"
                  xmlns="http://www.w3.org/2000/svg"
                >
                  <g clip-path="url(#clip0_18905_1646)">
                    <path
                      d="M8.7594 19.4507C9.30931 19.3344 12.6601 19.3344 13.21 19.4507C13.6801 19.5593 14.1885 19.813 14.1885 20.3669C14.1611 20.8943 13.8517 21.3618 13.4243 21.6587C12.87 22.0908 12.2195 22.3644 11.5395 22.463C11.1635 22.5118 10.7939 22.5129 10.431 22.463C9.74988 22.3644 9.0994 22.0908 8.54622 21.6576C8.11767 21.3618 7.80828 20.8943 7.78094 20.3669C7.78094 19.813 8.28931 19.5593 8.7594 19.4507ZM11.0496 0.5C13.3378 0.5 15.6752 1.58572 17.0636 3.38713C17.9644 4.54708 18.3777 5.70592 18.3777 7.50733V7.97596C18.3777 9.35749 18.7428 10.1718 19.5464 11.1102C20.1553 11.8015 20.3499 12.6889 20.3499 13.6516C20.3499 14.6133 20.034 15.5262 19.401 16.2673C18.5723 17.1558 17.4036 17.7231 16.2109 17.8217C14.4824 17.969 12.7529 18.0931 11.0005 18.0931C9.24688 18.0931 7.51846 18.0189 5.79003 17.8217C4.5962 17.7231 3.42752 17.1558 2.59993 16.2673C1.96694 15.5262 1.6499 14.6133 1.6499 13.6516C1.6499 12.6889 1.84559 11.8015 2.45344 11.1102C3.28212 10.1718 3.62321 9.35749 3.62321 7.97596V7.50733C3.62321 5.65717 4.08457 4.44737 5.0346 3.26305C6.44707 1.53587 8.71119 0.5 10.9513 0.5H11.0496Z"
                      fill="url(#paint0_linear_18905_1646)"
                    />
                  </g>
                  <defs>
                    <linearGradient
                      id="paint0_linear_18905_1646"
                      x1="10.9999"
                      y1="0.5"
                      x2="10.9999"
                      y2="22.5"
                      gradientUnits="userSpaceOnUse"
                    >
                      <stop stop-color="#F8E889" />
                      <stop offset="1" stop-color="#E4B764" />
                    </linearGradient>
                    <clipPath id="clip0_18905_1646">
                      <rect
                        width="22"
                        height="22"
                        fill="white"
                        transform="translate(0 0.5)"
                      />
                    </clipPath>
                  </defs>
                </svg>